<?xml version="1.0" encoding="iso-8859-1"?>
<!-- Generator: Adobe Illustrator 19.0.0, SVG Export Plug-In . SVG Version: 6.00 Build 0)  -->
<svg version="1.1" id="Layer_1" xmlns="http://www.w3.org/2000/svg" xmlns:xlink="http://www.w3.org/1999/xlink" x="0px" y="0px"
	 viewBox="0 0 500 500" style="enable-background:new 0 0 500 500;" xml:space="preserve">
<path style="fill:#54B265;" d="M6,178.2v268h492v-268H6z"/>
<path style="fill:#61C2AB;" d="M466,255.8c-12-2.4-34-15.6-38-37.6H78.8C66,231,70,245.4,38,255.8V377c24,0,34,22.4,40.8,37.6H428
	c4.8-24,22-36,38-37.6V255.8L466,255.8z"/>
<path style="fill:#4BB19B;" d="M198.4,358.2c-4.4-13.6-7.6-28.8-7.6-45.2c0-52.4,28.4-95.2,63.2-95.2s63.2,42.4,63.2,95.2
	c0,52.4-28.4,95.2-63.2,95.2c-15.6,0-30-8.8-41.2-23.2C212.8,385,201.6,368.2,198.4,358.2z"/>
<g>
	<circle style="fill:#E8E3E3;" cx="113.2" cy="312.2" r="21.2"/>
	<circle style="fill:#E8E3E3;" cx="391.6" cy="312.2" r="21.2"/>
</g>
<path style="fill:#AEB1B4;" d="M305.2,358.6c-2-15.2-20.8-19.6-40.8-21.6v-13.2c8-6.8,13.2-20.4,13.2-34c0-23.6-10.8-30-26-30
	s-28.4,6.4-28.4,30c0,13.6,5.6,27.6,9.6,34V337c-16,2.4-36,6.4-36,22.8v0.4c4,10.4,14.4,25.2,14.4,25.2
	c11.2,14.4,25.6,23.2,41.6,23.2c23.6,0,43.2-19.2,54-48L305.2,358.6z"/>
<polygon style="fill:#54B265;" points="302,146.2 302,54.2 198,54.2 198,146.2 163.6,146.2 250.4,252.2 337.6,146.2 "/>
<path d="M496,452.2H4c-2.4,0-4-1.6-4-4v-268c0-2.4,1.6-4,4-4h186c2.4,0,4,1.6,4,4s-1.6,4-4,4H8v260h484v-260H314c-2.4,0-4-1.6-4-4
	s1.6-4,4-4h182c2.4,0,4,1.6,4,4v268C500,450.6,498.4,452.2,496,452.2z"/>
<path d="M428.4,416.2H74.8c-2.4,0-4-1.6-4-4c0-17.6-16.8-34-34.8-34c-2.4,0-4-1.6-4-4V249.8c0-2.4,1.6-4,4-4
	c17.2,0,34.8-11.2,34.8-29.6c0-2.4,1.6-4,4-4H218c2.4,0,4,1.6,4,4s-1.6,4-4,4H78.4c-2,19.6-20,32-38.4,33.6v116.8
	c19.2,2,36.4,18.8,38.4,37.6h346c1.2-18.4,12.4-36,35.6-38V253.4c-20.8-1.2-34-13.6-35.6-33.6H286c-2.4,0-4-1.6-4-4s1.6-4,4-4h142.4
	c2.4,0,4,1.6,4,4c0,19.2,11.2,29.6,31.6,29.6c2.4,0,4,1.6,4,4v124.8c0,2.4-1.6,4-4,4c-23.2,0-31.6,18.4-31.6,34
	C432.4,414.6,430.8,416.2,428.4,416.2z"/>
<path d="M295.6,241c-1.2,0-2.4-0.4-3.2-1.6c-3.2-4-7.2-6-11.2-8.4c-2-0.8-3.6-2-5.6-3.2s-2.4-3.6-1.2-5.6s3.6-2.4,5.6-1.2
	c1.6,1.2,3.6,2,5.2,2.8c4.8,2.4,9.6,4.8,14,10.4c1.2,1.6,1.2,4.4-0.8,5.6C297.2,240.6,296.4,241,295.6,241z"/>
<path d="M251.6,415.4C212,415.4,180,369,180,312.2c0-40,16-74,43.2-90.8c2-1.2,4.4-0.4,5.6,1.2c1.2,2,0.4,4.4-1.2,5.6
	c-24.8,15.2-39.2,46.8-39.2,84c0,52.4,28.4,95.2,63.6,95.2s63.6-42.8,63.6-95.2c0-16-2.8-32-8-45.6c-0.8-2,0.4-4.4,2.4-5.2
	c2-0.8,4.4,0.4,5.2,2.4c5.6,14.8,8.4,31.6,8.4,48.4C322.8,369,290.8,415.4,251.6,415.4z"/>
<path d="M112.8,340.2c-15.6,0-28-12.8-28-28c0-15.6,12.8-28,28-28c2.4,0,4,1.6,4,4s-1.6,4-4,4c-11.2,0-20,9.2-20,20
	c0,11.2,9.2,20,20,20c11.2,0,20-9.2,20-20c0-2.4,1.6-4,4-4s4,1.6,4,4C140.8,327.8,128.4,340.2,112.8,340.2z"/>
<path d="M309.6,363.8c-2.4,0-4-1.6-4-4c0-12.8-22.4-16-37.6-18c-1.6-0.4-3.2-0.4-4.4-0.8c-2-0.4-3.6-2-3.6-4v-13.6
	c0-1.2,0.4-2.4,1.2-3.2c7.2-6.4,12.4-19.6,12.4-32.4c0-24-11.2-27.6-23.2-27.6c-17.6,0-25.2,8.4-25.2,27.6c0,12,5.2,25.2,10,33.6
	c0.4,0.8,0.4,1.2,0.4,2V337c0,2-1.6,3.6-3.6,4l-2.4,0.4c-18,2.8-32.8,5.6-32.8,18.4c0,2.4-1.6,4-4,4s-4-1.6-4-4
	c0-20,23.2-23.6,38.8-26v-9.2c-3.2-5.6-10.4-20.8-10.4-36.8c0-23.6,11.2-35.6,33.2-35.6c21.2,0,31.2,11.6,31.2,35.6
	c0,14.4-5.6,29.2-14,37.2v8.4c0.4,0,0.8,0,1.2,0c17.6,2.4,44.4,6,44.4,26C313.6,361.8,311.6,363.8,309.6,363.8z"/>
<path d="M390.8,340.2c-15.6,0-28-12.8-28-28c0-15.6,12.8-28,28-28c2.4,0,4,1.6,4,4s-1.6,4-4,4c-11.2,0-20,9.2-20,20
	c0,11.2,9.2,20,20,20c11.2,0,20-9.2,20-20c0-2.4,1.6-4,4-4s4,1.6,4,4C418.8,327.8,406.4,340.2,390.8,340.2z"/>
<path d="M251.6,258.2L251.6,258.2c-1.2,0-2.4-0.4-3.2-1.6l-31.2-38.8l-56.4-67.2c-0.8-1.2-1.2-2.8-0.4-4.4s2-2.4,3.6-2.4h32v-92
	c0-2.4,1.6-4,4-4h100c2.4,0,4,1.6,4,4v92h34.8c1.6,0,2.8,0.8,3.6,2.4s0.4,3.2-0.4,4.4l-87.6,106C254,257.8,252.8,258.2,251.6,258.2z
	 M172.8,152.2l50.8,60.8l28,34.8l78.8-95.6H300c-2.4,0-4-1.6-4-4v-92h-92v92c0,2.4-1.6,4-4,4L172.8,152.2L172.8,152.2z"/>
<g>
</g>
<g>
</g>
<g>
</g>
<g>
</g>
<g>
</g>
<g>
</g>
<g>
</g>
<g>
</g>
<g>
</g>
<g>
</g>
<g>
</g>
<g>
</g>
<g>
</g>
<g>
</g>
<g>
</g>
</svg>
